<svg width="100" height="100" viewBox="0 0 100 100" xmlns="http://www.w3.org/2000/svg">
  <defs>
    <linearGradient id="catGradient" x1="0%" y1="0%" x2="100%" y2="100%">
      <stop offset="0%" style="stop-color:#fd79a8;stop-opacity:1" />
      <stop offset="100%" style="stop-color:#e84393;stop-opacity:1" />
    </linearGradient>
  </defs>
  <circle cx="50" cy="50" r="50" fill="url(#catGradient)"/>
  <!-- Cat ears -->
  <polygon points="35,25 25,5 45,15" fill="url(#catGradient)"/>
  <polygon points="65,25 75,5 55,15" fill="url(#catGradient)"/>
  <!-- Cat eyes -->
  <ellipse cx="42" cy="40" rx="4" ry="6" fill="white"/>
  <ellipse cx="58" cy="40" rx="4" ry="6" fill="white"/>
  <ellipse cx="42" cy="40" rx="2" ry="4" fill="black"/>
  <ellipse cx="58" cy="40" rx="2" ry="4" fill="black"/>
  <!-- Cat nose -->
  <polygon points="50,48 47,52 53,52" fill="pink"/>
  <!-- Cat mouth -->
  <path d="M 50 52 Q 45 58 40 55" stroke="white" stroke-width="2" fill="none"/>
  <path d="M 50 52 Q 55 58 60 55" stroke="white" stroke-width="2" fill="none"/>
  <!-- Whiskers -->
  <line x1="30" y1="45" x2="38" y2="47" stroke="white" stroke-width="1.5"/>
  <line x1="30" y1="50" x2="38" y2="50" stroke="white" stroke-width="1.5"/>
  <line x1="62" y1="47" x2="70" y2="45" stroke="white" stroke-width="1.5"/>
  <line x1="62" y1="50" x2="70" y2="50" stroke="white" stroke-width="1.5"/>
</svg>
