<svg width="100" height="100" viewBox="0 0 100 100" xmlns="http://www.w3.org/2000/svg">
  <defs>
    <linearGradient id="teacherGradient" x1="0%" y1="0%" x2="100%" y2="100%">
      <stop offset="0%" style="stop-color:#00b894;stop-opacity:1" />
      <stop offset="100%" style="stop-color:#00a085;stop-opacity:1" />
    </linearGradient>
  </defs>
  <circle cx="50" cy="50" r="50" fill="url(#teacherGradient)"/>
  <!-- Face -->
  <circle cx="50" cy="42" r="15" fill="#f0d0b0"/>
  <!-- Hair -->
  <path d="M 35 30 Q 50 20 65 30 L 65 35 Q 50 25 35 35 Z" fill="brown"/>
  <!-- Eyes -->
  <circle cx="45" cy="40" r="2" fill="black"/>
  <circle cx="55" cy="40" r="2" fill="black"/>
  <!-- Glasses -->
  <circle cx="45" cy="40" r="4" stroke="black" stroke-width="1" fill="none"/>
  <circle cx="55" cy="40" r="4" stroke="black" stroke-width="1" fill="none"/>
  <line x1="49" y1="38" x2="51" y2="38" stroke="black" stroke-width="1"/>
  <!-- Mouth -->
  <path d="M 45 47 Q 50 50 55 47" stroke="black" stroke-width="1" fill="none"/>
  <!-- Shirt -->
  <rect x="35" y="55" width="30" height="25" fill="#4a90e2"/>
  <!-- Book -->
  <rect x="40" y="60" width="8" height="12" fill="white" stroke="black" stroke-width="1"/>
  <line x1="44" y1="62" x2="44" y2="70" stroke="black" stroke-width="0.5"/>
  <line x1="42" y1="64" x2="46" y2="64" stroke="black" stroke-width="0.5"/>
  <line x1="42" y1="66" x2="46" y2="66" stroke="black" stroke-width="0.5"/>
  <line x1="42" y1="68" x2="46" y2="68" stroke="black" stroke-width="0.5"/>
</svg>
